Coordinates
version=1
nRows=16
nColumns=42
inDegrees=yes

Units are S.I. units (second, meters, Newtons, ...)
If the header above contains a line with 'inDegrees', this indicates whether rotational values are in degrees (yes) or radians (no).

endheader
time	pelvis_tilt	pelvis_list	pelvis_rotation	pelvis_tx	pelvis_ty	pelvis_tz	hip_flexion_r	hip_adduction_r	hip_rotation_r	knee_angle_r	knee_adduction_r	knee_angle_r_beta	ankle_angle_r	subtalar_angle_r	mtp_angle_r	hip_flexion_l	hip_adduction_l	hip_rotation_l	knee_angle_l	knee_adduction_l	knee_angle_l_beta	ankle_angle_l	subtalar_angle_l	mtp_angle_l	lumbar_extension	lumbar_bending	lumbar_rotation	arm_flex_r	arm_add_r	arm_rot_r	elbow_flex_r	pro_sup_r	wrist_flex_r	wrist_dev_r	arm_flex_l	arm_add_l	arm_rot_l	elbow_flex_l	pro_sup_l	wrist_flex_l	wrist_dev_l
      1.45000000	      8.02399798	     -1.50365863	     10.70570850	     -0.15882184	      0.87634908	      0.19736406	     -4.95969643	      9.14947805	      0.90980815	     14.23572492	      1.62735590	      0.24846027	     20.18776917	    -12.04668398	     -7.57176215	     18.30173364	      1.91894668	      3.18553980	     52.59905097	     -8.07811569	      0.91802662	     15.18121085	    -15.57702021	     -7.57176215	    -37.12312103	      7.15314565	     -4.12517635	     18.49783627	    -14.03805790	      3.34859001	     41.74355353	     90.00000001	      0.00000000	      0.00000000	     11.50718402	    -12.10261038	     -6.95241082	     30.86817048	     90.00000001	      0.00000000	      0.00000000
      1.46000000	      7.87918189	     -1.63023657	     10.69312490	     -0.15079002	      0.87531655	      0.19741217	     -5.35329776	      9.51886520	      0.90173956	     14.31522036	      1.32187558	      0.24984773	     20.71243844	    -11.88670819	     -7.57041991	     19.30628917	      1.92220915	      3.24329580	     50.70554830	     -7.67619471	      0.88497877	     15.06362056	    -15.00291331	     -7.57041991	    -36.87381574	      7.26681756	     -4.04540022	     19.11031618	    -14.17909906	      3.47274930	     42.14394012	     90.00000001	      0.00000000	      0.00000000	     11.05367565	    -11.98581076	     -7.06284278	     30.60836809	     90.00000001	      0.00000000	      0.00000000
      1.47000000	      8.04085378	     -1.50443285	     10.60476908	     -0.14239472	      0.87509039	      0.19721825	     -6.37211827	      9.46418027	      1.23670223	     14.00355214	      1.45630319	      0.24440809	     21.19663735	    -11.77716556	     -7.56791713	     19.54454515	      2.13390582	      3.53189454	     48.22402554	     -6.99945523	      0.84166802	     14.81939403	    -14.77457182	     -7.56791713	    -36.97656630	      7.16500903	     -4.03979562	     19.72457913	    -14.39370525	      3.98545292	     42.53893431	     90.00000001	      0.00000000	      0.00000000	     10.79252850	    -11.81955365	     -7.61815552	     29.99707847	     90.00000001	      0.00000000	      0.00000000
      1.48000000	      8.07295641	     -1.53446438	     10.53716733	     -0.13414433	      0.87434534	      0.19708716	     -7.15672688	      9.64544677	      1.47667031	     13.78560394	      1.39034160	      0.24060418	     21.61266086	    -11.70014311	     -7.56531644	     20.05092253	      2.16276493	      3.57297553	     45.82518415	     -6.47956661	      0.79980034	     14.56212575	    -14.37288874	     -7.56531644	    -36.92908842	      7.20040274	     -3.98421889	     20.34413514	    -14.57750023	      4.36502479	     42.94286085	     90.00000001	      0.00000000	      0.00000000	     10.43529177	    -11.65423347	     -8.10230014	     29.66722124	     90.00000001	      0.00000000	      0.00000000
      1.49000000	      7.94284678	     -1.71355386	     10.48220472	     -0.12603908	      0.87301217	      0.19705568	     -7.58218722	     10.05542231	      1.46940682	     13.83900496	      1.08939042	      0.24153620	     22.17749851	    -11.52800052	     -7.56391941	     20.87591498	      1.98304201	      3.38264804	     43.56421800	     -5.99577898	      0.76033904	     14.38617961	    -13.71474630	     -7.56391941	    -36.69722549	      7.35966983	     -3.86362583	     20.92163614	    -14.69318513	      4.53857307	     43.31988189	     90.00000001	      0.00000000	      0.00000000	     10.01994255	    -11.52775933	     -8.27642423	     29.49074736	     90.00000001	      0.00000000	      0.00000000
      1.50000000	      8.15009869	     -1.59518986	     10.34162171	     -0.11757784	      0.87257052	      0.19667470	     -8.69364010	      9.95945556	      1.74429261	     13.47133351	      1.25207211	      0.23511912	     22.60939153	    -11.26233227	     -7.56142401	     20.87603633	      2.10725135	      3.12738161	     40.72704907	     -5.54577110	      0.71082110	     14.20689184	    -13.11352030	     -7.56142401	    -36.85246965	      7.27519475	     -3.82562250	     21.55915322	    -14.90497370	      5.05300050	     43.69745432	     90.00000001	      0.00000000	      0.00000000	      9.75675628	    -11.36875190	     -8.87962958	     29.13740019	     90.00000001	      0.00000000	      0.00000000
      1.51000000	      8.24509873	     -1.63854240	     10.23093676	     -0.10920490	      0.87167102	      0.19640181	     -9.62444216	     10.13776802	      2.04515105	     13.13284634	      1.17888918	      0.22921141	     23.00140232	    -11.16751288	     -7.55805265	     21.12810566	      1.99783910	      2.64624316	     38.05336399	     -5.11135919	      0.66415649	     14.00684943	    -12.29996256	     -7.55805265	    -36.87188821	      7.33225556	     -3.73874872	     22.15773793	    -15.05791662	      5.45969324	     44.05514650	     90.00000001	      0.00000000	      0.00000000	      9.44173789	    -11.20738415	     -9.42734962	     28.95351095	     90.00000001	      0.00000000	      0.00000000
      1.52000000	      8.30370383	     -1.66154189	     10.07219706	     -0.10085807	      0.87064202	      0.19613142	    -10.42098653	     10.23584186	      2.17310739	     13.00208033	      1.15540602	      0.22692911	     23.51382518	    -10.90933797	     -7.55565039	     21.34270896	      1.88226305	      2.00981665	     35.33176412	     -4.68104010	      0.61665561	     14.00981261	    -11.20180884	     -7.55565039	    -36.86709253	      7.34553879	     -3.62921180	     22.75384306	    -15.17782604	      5.78563525	     44.37463852	     90.00000001	      0.00000000	      0.00000000	      9.14883619	    -11.08217034	     -9.74919985	     28.78145854	     90.00000001	      0.00000000	      0.00000000
      1.53000000	      8.32838905	     -1.73730906	      9.88443183	     -0.09251490	      0.86944500	      0.19597185	    -11.12946502	     10.39551925	      2.26261061	     12.95441688	      1.09580759	      0.22609723	     24.08489265	    -10.58310718	     -7.55394625	     21.56965150	      1.62921633	      1.31305117	     32.68431553	     -4.11584295	      0.57044892	     13.99496984	     -9.95540050	     -7.55394625	    -36.83033209	      7.37877147	     -3.46083673	     23.32819033	    -15.28153943	      6.07687410	     44.65761394	     90.00000001	      0.00000000	      0.00000000	      8.85991071	    -10.97220121	    -10.01030323	     28.67985954	     90.00000001	      0.00000000	      0.00000000
      1.54000000	      8.52239594	     -1.75089579	      9.72161658	     -0.08392097	      0.86855375	      0.19551431	    -12.33478590	     10.47976669	      2.77649352	     12.34986311	      1.09501980	      0.21554577	     24.31134483	    -10.46942180	     -7.54862200	     21.53826697	      1.46290692	      0.13277774	     30.09504591	     -3.83929026	      0.52525764	     14.21086544	     -8.00080376	     -7.54862200	    -36.95566193	      7.40935524	     -3.38590644	     23.90918468	    -15.40616999	      6.58690576	     44.98068583	     90.00000001	      0.00000000	      0.00000000	      8.59806489	    -10.81104847	    -10.63196873	     28.60428672	     90.00000001	      0.00000000	      0.00000000
      1.55000000	      8.61534888	     -1.76516442	      9.55361170	     -0.07543648	      0.86739982	      0.19508362	    -13.17041007	     10.51588224	      2.77185354	     12.26978947	      1.10276223	      0.21414822	     24.81686736	    -10.05846439	     -7.54666453	     21.52927964	      1.32160270	     -0.68945003	     27.58382057	     -3.36858428	      0.48142849	     14.27891304	     -6.46109374	     -7.54666453	    -36.98126632	      7.41078875	     -3.27531781	     24.44155860	    -15.48187985	      6.87580576	     45.19129408	     90.00000001	      0.00000000	      0.00000000	      8.36962061	    -10.73135647	    -10.81006699	     28.52014299	     90.00000001	      0.00000000	      0.00000000
      1.56000000	      8.71983748	     -1.79771944	      9.36570514	     -0.06687634	      0.86622261	      0.19463648	    -14.06934443	     10.56074980	      2.86713481	     12.07970136	      1.11189018	      0.21083056	     25.27998819	     -9.62146476	     -7.54490729	     21.49994178	      1.12479660	     -1.57106608	     25.34633952	     -2.85647948	      0.44237708	     14.40961597	     -4.76762996	     -7.54490729	    -37.01693012	      7.42015008	     -3.16194203	     24.96704661	    -15.53076978	      7.22821846	     45.39955523	     90.00000001	      0.00000000	      0.00000000	      8.15202129	    -10.62551515	    -11.05949133	     28.50020017	     90.00000001	      0.00000000	      0.00000000
      1.57000000	      8.65962301	     -1.99209336	      9.23061711	     -0.05845850	      0.86455356	      0.19433817	    -14.64273513	     10.90604102	      2.94253924	     12.11294594	      0.85115988	      0.21141079	     25.81092943	     -9.34966815	     -7.54402579	     21.79939608	      0.75828402	     -2.17251581	     23.62683837	     -2.21994070	      0.41236612	     14.33230156	     -3.55698260	     -7.54402579	    -36.86008466	      7.56505676	     -3.01359687	     25.44120134	    -15.53795223	      7.42955843	     45.57668895	     90.00000001	      0.00000000	      0.00000000	      7.94880064	    -10.55408725	    -11.17316281	     28.51463431	     90.00000001	      0.00000000	      0.00000000
      1.58000000	      8.95618487	     -1.88452962	      9.04684172	     -0.04943161	      0.86373377	      0.19357011	    -15.92780904	     10.68023983	      3.21239333	     11.70593988	      1.13246261	      0.20430719	     26.01276143	     -8.92010985	     -7.54249831	     21.40259810	      0.78543393	     -3.18468105	     21.88720067	     -1.98572965	      0.38200372	     14.64858289	     -1.49467928	     -7.54249831	    -37.06669661	      7.46825143	     -3.01843224	     25.90169562	    -15.56337351	      7.93686269	     45.74423219	     90.00000001	      0.00000000	      0.00000000	      7.74014599	    -10.48707386	    -11.53417679	     28.49506408	     90.00000001	      0.00000000	      0.00000000
      1.59000000	      8.84913622	     -2.11261179	      9.03901355	     -0.04085627	      0.86184260	      0.19285834	    -16.40738995	     10.96442489	      3.09585181	     11.82967496	      1.08467101	      0.20646678	     26.26926424	     -8.82745636	     -7.54209659	     21.91879585	      0.55597322	     -3.63525706	     21.22843151	     -1.63632300	      0.37050602	     14.59963574	     -1.13226972	     -7.54209659	    -36.81440174	      7.70376763	     -3.00264009	     26.25643693	    -15.48075013	      7.99722829	     45.94510793	     90.00000001	      0.00000000	      0.00000000	      7.52669922	    -10.44945762	    -11.55190197	     28.49747922	     90.00000001	      0.00000000	      0.00000000
      1.60000000	      8.85779816	     -2.25806865	      8.94752211	     -0.03205044	      0.86028581	      0.19226770	    -17.06709148	     11.19256657	      3.19198192	     11.93190155	      0.97857246	      0.20825097	     26.60789740	     -8.72894937	     -7.54176585	     22.09988933	      0.39816907	     -3.87916638	     20.63384360	     -1.33045123	      0.36012851	     14.54175015	     -0.54424568	     -7.54176585	    -36.68883268	      7.82117574	     -2.95787568	     26.58646415	    -15.39525778	      8.13640974	     46.06420935	     90.00000001	      0.00000000	      0.00000000	      7.36422264	    -10.43785187	    -11.61080422	     28.48066333	     90.00000001	      0.00000000	      0.00000000
